<?xml version="1.0" encoding="UTF-8"?>
<svg id="Layer_2" data-name="Layer 2" xmlns="http://www.w3.org/2000/svg" viewBox="0 0 420 525">
  <g id="Layer_1-2" data-name="Layer 1">
    <g>
      <path d="M316.72,0l-5.42,6.89c16.67,13.1,19.37,25.83,18.58,35.72-.28,3.5-1.02,3.82-1.88,5.95-1.41-.18-2.8-.43-4.25-.43-17.78,0-32.37,13.42-34.55,30.62H105v8.75h184.2c2.18,17.2,16.77,30.62,34.55,30.62s32.37-13.42,34.55-30.62h42.66l-67.57,78.75h-71.78l-6.46-11.21-7.57,4.38,17.5,30.32-60.62,35-35-60.62,60.62-35,8.75,15.16,7.57-4.38-13.12-22.75-75.78,43.75,3.09,5.35H86.61L19.04,87.5H87.5v-8.75H0l81.96,95.54v.72h.62l109.92,128.11v195.64h-61.25v26.25h157.5v-26.25h-61.25v-35h-8.75v43.75h61.25v8.75H140v-8.75h61.25v-201.25h17.5v140h8.75v-143.14l109.92-128.11h.29v-.34l82.29-95.91h-61.57c-1.61-12.77-10.12-23.41-21.69-28.06,.68-2.48,1.64-4.37,1.88-7.38,.99-12.32-3.32-28.72-21.89-43.31h0Zm7.02,56.87c14.55,0,26.25,11.7,26.25,26.25s-11.7,26.25-26.25,26.25-26.25-11.7-26.25-26.25,11.7-26.25,26.25-26.25ZM94.11,174.99h71.52l35.62,61.68,75.78-43.75-10.36-17.93h59.21l-105.1,122.5h-21.57l-105.1-122.5h0Z"/>
      <path d="M220.04,190.47l22.73-13.12,4.38,7.58-22.73,13.12-4.38-7.58Z"/>
    </g>
  </g>
</svg>