<?xml version="1.0" encoding="UTF-8"?>
<svg id="Layer_2" data-name="Layer 2" xmlns="http://www.w3.org/2000/svg" viewBox="0 0 237.44 369.62">
  <g id="Layer_1-2" data-name="Layer 1">
    <g>
      <path d="M236.01,52.77c-1.06-1.17-2.56-1.84-4.14-1.85H76.98l-4.48-32.26c-.34-2.29-2.05-4.14-4.31-4.64L6.81,.13C3.79-.53,.81,1.38,.14,4.39c-.34,1.45-.08,2.97,.71,4.23,.79,1.26,2.04,2.16,3.49,2.49l57.46,12.88,3.7,26.82h-30.69c-1.58,0-3.09,.68-4.14,1.85-1.05,1.18-1.56,2.74-1.4,4.31l29.01,307.55h0c.26,2.9,2.69,5.11,5.6,5.1H202.81c2.91,.01,5.34-2.2,5.6-5.09L237.42,56.97h0c.13-1.54-.38-3.05-1.4-4.2h0Zm-10.3,9.35l-4.65,48.95h0c-8.31-.4-16.45-2.55-23.86-6.33-10.31-5.16-21.73-7.72-33.26-7.45-11.51-.28-22.92,2.28-33.21,7.45-8.89,4.53-18.76,6.76-28.73,6.5-5.67,.06-11.32-.64-16.8-2.07l-6.5-47.04H225.71Zm-158.48,0l5.88,42.39h0c-9.07-4.46-19.01-6.89-29.12-7.11l-3.3-35.28h26.54ZM197.71,358.53H68.41L45.05,108.6c8.34,.42,16.51,2.57,23.97,6.33,1.9,.89,3.81,1.73,5.6,2.57l13.33,96.15-6.21-.73c-1.49-.11-2.96,.38-4.08,1.36-1.12,.98-1.82,2.36-1.91,3.85l-2.63,36.96c-.2,3.05,2.1,5.7,5.15,5.94l16.8,1.23,4.14,30.07-19.32,11.2h0c-1.3,.75-2.24,1.97-2.63,3.42-.39,1.44-.19,2.97,.56,4.26l18.59,32.25c.74,1.27,1.95,2.19,3.36,2.58,.48,.05,.97,.05,1.45,0,.99-.01,1.95-.28,2.8-.79l32.09-18.48c2.53-1.57,3.39-4.84,1.96-7.45l-18.54-32.09h0c-.75-1.28-1.98-2.22-3.42-2.6-1.44-.38-2.97-.17-4.25,.59l-2.24,1.29-3.19-23.19,8.79,.62h.39c2.95,0,5.39-2.27,5.6-5.21l2.63-36.9h0c.23-3.04-2.01-5.7-5.04-6l-19.04-1.4-13.05-93.41c5.11,.97,10.31,1.44,15.52,1.4,11.57,.3,23.04-2.28,33.38-7.5,18.14-8.55,39.15-8.55,57.29,0,8.48,4.3,17.77,6.78,27.27,7.28l-22.46,236.32Zm-113.06-108.03l1.85-25.76,25.76,1.85-1.85,25.54-25.76-1.62Zm28,47.21l12.88,22.4-22.4,12.94-12.94-22.4,22.46-12.94Z"/>
      <path d="M182.08,246.53c-.75-3-3.78-4.83-6.78-4.09l-35.95,8.79c-2.89,.72-4.71,3.57-4.14,6.5l8.79,35.95c.63,2.56,2.96,4.33,5.6,4.25h1.29l36.01-8.85c3-.75,4.82-3.78,4.09-6.78l-8.9-35.78Zm-28.5,39.2l-6.16-25.09,25.09-6.11,6.16,25.09-25.09,6.11Z"/>
      <path d="M193.23,189.86c-1.48-.18-2.96,.25-4.13,1.17-1.17,.93-1.92,2.28-2.09,3.75v1.51c-.37,2.96,1.65,5.7,4.59,6.22h.61c2.85,.02,5.26-2.1,5.6-4.93v-1.51c.38-2.96-1.65-5.7-4.59-6.21h0Z"/>
      <path d="M158.5,174.12h.62c2.87,.02,5.29-2.13,5.6-4.98v-1.46h0c.37-3.09-1.84-5.9-4.93-6.27-3.09-.37-5.9,1.84-6.27,4.93v1.52c-.19,1.49,.23,3,1.17,4.18,.94,1.18,2.31,1.93,3.81,2.09h0Z"/>
    </g>
  </g>
</svg>